<?xml version="1.0" encoding="utf-8"?>
<svg xmlns="http://www.w3.org/2000/svg" width="369" height="232" viewBox="392.60 507.10 368.69 231.82">
  <path fill="#F74C1B" d="M646.827 535.004C651.318 536.514 657.205 539.584 661.346 542.01C698.788 549.001 724.28 573.812 728.993 612.254C737.491 614.296 744.434 622.969 745.39 631.61C746.005 637.175 745.424 642.804 745.694 648.266C746.284 660.167 744.983 669.161 733.745 675.904C725.985 680.56 712.432 682.167 706.929 672.946C703.311 666.588 704.413 655.593 704.622 648.379L704.342 647.216C704.086 647.112 703.831 647.008 703.575 646.904C677.041 663.664 682.431 634.112 681.769 618.162C681.493 611.502 682.035 603.122 690.255 601.216C691.726 593.513 686.523 580.668 683.798 573.432C675.285 566.329 660.909 564.322 650.198 565.328C634.715 566.758 620.464 574.375 610.673 586.455C604.219 594.343 601.464 602.013 599.158 611.773C606.959 616.639 607.165 621.749 607.052 630.251C606.889 642.5 607.426 654.877 606.579 667.098C606.058 674.617 602.074 677.234 595.509 679.998C600.888 689.522 611.302 693.671 621.397 695.866L622.371 695.593C625.1 694.819 628.095 687.875 633.004 690.508C636.269 692.258 636.811 696.485 635.057 699.498C632.017 704.718 626.241 700.934 622.033 699.581C608.83 697.849 597.664 692.468 590.796 680.501C578.085 677.548 568.404 672.791 566.22 658.49C549.963 658.665 545.09 651.74 545.702 636.126C546.227 622.734 542.759 613.211 555.942 604.151C559.264 602.456 561.862 602.119 565.05 600.654C569.446 601.124 571.273 601.67 575.115 603.87C577.205 605.066 580.034 608.785 581.148 608.71L581.309 608.567C586.033 574.062 609.04 550.845 642.383 542.645C643.704 540.377 644.195 538.691 646.581 537.651C648.62 537.311 648.244 536.763 646.92 535.455L646.827 535.004ZM699.001 591.706C697.73 591.296 697.738 591.366 696.717 590.504C696.124 589.498 694.259 586.947 693.19 586.629C691.925 586.253 692.954 589.647 693.503 589.987C694.888 590.842 695.152 591.088 695.96 592.411C696.236 594.955 696.199 596.706 697.514 598.772C697.691 599.255 698.099 600.15 698.037 600.697C697.764 600.966 691.184 601.433 690.255 601.216C682.035 603.122 681.493 611.502 681.769 618.162C682.431 634.112 677.041 663.664 703.575 646.904C703.831 647.008 704.086 647.112 704.342 647.216L704.622 648.379C705.724 644.651 704.622 631.673 705.166 627.005C706.081 619.145 707.203 610.459 704.402 602.918C702.837 598.538 701.738 595.584 699.46 591.466L699.001 591.706ZM708.534 621.886C708.565 634.651 707.95 657.398 709.063 669.378C714.401 677.639 722.676 677.158 730.825 673.13C735.853 669.661 741.017 664.827 741.516 658.549C741.972 652.802 742.204 635.48 741.16 630.563C740.561 627.7 739.34 625.002 737.585 622.662C732.359 615.823 724.716 614.045 716.591 614.544C711.989 616.922 711.351 617.473 708.534 621.886ZM657.521 546.075C644.631 543.885 626.164 550.885 615.834 558.314C598.66 570.664 588.181 588.351 584.654 609.079C584.519 609.866 584.408 610.657 584.319 611.451C587.808 611.081 591.919 610.543 595.366 610.418C596.482 606.796 597.556 603.029 598.783 599.562C605.285 581.188 621.573 567.399 640.438 563.033C641.435 562.802 645.572 561.826 646.387 561.436C653.153 561.794 658.673 560.911 665.757 561.99C674.968 563.392 679.002 566.382 686.799 570.049C702.339 584.739 707.103 591.75 710.275 613.047L710.873 612.838C715.889 611.032 719.319 610.797 724.567 610.043C722.155 581.943 698.39 555.343 671.232 548.376C668.089 546.863 660.928 545.844 657.521 546.075ZM583.413 674.231C588.133 675.655 593.209 676.968 597.862 674.522C599.448 673.688 601.26 672.175 601.978 670.503C603.181 667.698 603.226 621.825 602.163 619.889C600.548 616.951 597.692 615.496 594.503 614.87C593.944 614.761 593.413 614.729 592.845 614.703C585.804 615.462 578.992 616.751 574.156 622.62C572.347 624.856 571.093 627.489 570.498 630.303C569.5 634.804 569.859 639.222 569.809 643.753C569.649 657.958 568.516 667.347 583.413 674.231Z"/>
  <path fill="#D8BAAE" fill-opacity="0.023529412" d="M696.717 590.504C697.738 591.366 697.73 591.296 699.001 591.706C698.293 594.565 698.693 595.957 698.813 598.873L697.514 598.772C696.199 596.706 696.236 594.955 695.96 592.411C696.219 591.778 696.471 591.142 696.717 590.504Z"/>
  <path fill="#D6B8AB" fill-opacity="0.74509805" d="M695.96 592.411C695.152 591.088 694.888 590.842 693.503 589.987C692.954 589.647 691.925 586.253 693.19 586.629C694.259 586.947 696.124 589.498 696.717 590.504C696.471 591.142 696.219 591.778 695.96 592.411Z"/>
  <path fill="#A57B61" d="M565.05 600.654C569.446 601.124 571.273 601.67 575.115 603.87C577.205 605.066 580.034 608.785 581.148 608.71L581.309 608.567C581.395 612.872 579.439 613.639 575.663 616.123C568.067 621.119 566.875 626.993 566.238 635.522C566.004 641.509 565.758 652.355 566.22 658.49C549.963 658.665 545.09 651.74 545.702 636.126C546.227 622.734 542.759 613.211 555.942 604.151C559.264 602.456 561.862 602.119 565.05 600.654Z"/>
  <path fill="#A57B61" d="M697.514 598.772L698.813 598.873C698.517 602.445 701.095 602.468 704.402 602.918C707.203 610.459 706.081 619.145 705.166 627.005C704.622 631.673 705.724 644.651 704.622 648.379L704.342 647.216C704.086 647.112 703.831 647.008 703.575 646.904C677.041 663.664 682.431 634.112 681.769 618.162C681.493 611.502 682.035 603.122 690.255 601.216C691.184 601.433 697.764 600.966 698.037 600.697C698.099 600.15 697.691 599.255 697.514 598.772ZM701.83 622.94C702.891 614.212 704.687 616.07 701.199 607.354C700.936 612.117 700.87 617.431 700.392 622.083C700.262 623.714 700.304 642.019 700.743 642.776C701.22 643.054 701.732 641.703 701.75 641.386C701.962 637.664 701.914 633.64 701.968 629.929C702.001 627.68 702.112 625.054 701.83 622.94Z"/>
  <path fill="#A57B61" fill-opacity="0.80000001" d="M700.392 622.083C700.965 622.839 700.91 622.756 701.83 622.94C702.112 625.054 702.001 627.68 701.968 629.929C701.914 633.64 701.962 637.664 701.75 641.386C701.732 641.703 701.22 643.054 700.743 642.776C700.304 642.019 700.262 623.714 700.392 622.083Z"/>
  <path fill="#A57B61" fill-opacity="0.44313726" d="M701.199 607.354C704.687 616.07 702.891 614.212 701.83 622.94C700.91 622.756 700.965 622.839 700.392 622.083C700.87 617.431 700.936 612.117 701.199 607.354Z"/>
  <path fill="#D6B8AB" d="M683.798 573.432L684.628 573.987C689.095 576.871 697.747 586.482 699.46 591.466L699.001 591.706C697.73 591.296 697.738 591.366 696.717 590.504C696.124 589.498 694.259 586.947 693.19 586.629C691.925 586.253 692.954 589.647 693.503 589.987C694.888 590.842 695.152 591.088 695.96 592.411C696.236 594.955 696.199 596.706 697.514 598.772C697.691 599.255 698.099 600.15 698.037 600.697C697.764 600.966 691.184 601.433 690.255 601.216C691.726 593.513 686.523 580.668 683.798 573.432Z"/>
  <path fill="#DAB6A7" d="M646.827 535.004C651.318 536.514 657.205 539.584 661.346 542.01C658.085 542.058 654.121 541.688 651 541.904C647.768 542.127 645.747 542.533 642.383 542.645C643.704 540.377 644.195 538.691 646.581 537.651C648.62 537.311 648.244 536.763 646.92 535.455L646.827 535.004Z"/>
  <path fill="#D6B8AB" fill-opacity="0.98823529" d="M657.521 546.075C660.928 545.844 668.089 546.863 671.232 548.376C671.76 550.41 679.349 557.11 681.215 560.126C683.363 563.598 685.049 566.148 686.799 570.049C679.002 566.382 674.968 563.392 665.757 561.99C658.673 560.911 653.153 561.794 646.387 561.436C651.034 558.49 668.107 560.089 673.767 561.748C674.592 560.578 671.434 558.842 672.154 557.817C673.516 555.343 668.434 554.262 667.846 553.817C665.14 551.774 660.387 547.764 657.521 546.075Z"/>
  <path fill="#D6B8AB" d="M628.52 694.383C629.175 693.837 630.077 693.697 630.866 694.019C631.655 694.341 632.202 695.072 632.288 695.92C632.374 696.768 631.985 697.594 631.277 698.068C630.259 698.75 628.885 698.515 628.15 697.533C627.416 696.552 627.579 695.167 628.52 694.383Z"/>
  <path fill="#F74C1B" d="M432.969 528.419C444.533 522.098 452.065 527.227 452.531 540.142C452.658 543.673 452.561 547.234 452.524 550.767C457.023 553.902 457.549 553.856 463.089 554.083C463.295 563.649 463.967 578.331 463.016 587.477L452.66 587.674L452.584 672.257L452.574 696.148C452.585 701.101 452.487 705.576 452.316 710.81C451.957 721.789 438.366 723.915 431.698 717.525C428.117 714.093 428.602 703.509 428.622 698.314C424.812 698.101 418.214 698.878 416.076 696.987C415.651 695.74 415.495 695.535 415.448 694.239C409.371 695.02 409.575 693.329 409.671 688.501C409.915 676.379 409.954 664.211 409.757 652.088C410.005 638.252 409.632 623.8 409.769 609.917C409.827 604.079 410.221 585.472 409.159 580.553C407.683 578.727 407.596 544.792 408.547 542.058C410.809 541.937 413.011 541.896 415.27 541.82C415.516 540.913 415.513 540.933 415.631 539.995L415.779 540.535C416.212 542.308 426.6 541.877 428.469 541.682C428.542 538.507 428.894 535.708 429.505 532.586C430.491 531.227 431.081 530.157 432.342 529.011L432.969 528.419ZM428.496 651.927L428.259 587.938C423.471 587.694 420.605 587.596 415.859 587.921C415.35 593.006 415.771 602.107 415.784 607.664C415.843 621.43 415.803 635.197 415.665 648.962C415.707 649.525 415.706 651.394 416.099 651.879C416.93 652.203 427.22 651.978 428.496 651.927ZM425.124 550.152C426.245 549.999 426.403 550.081 427.108 549.369C425.517 547.425 423.824 547.99 421.394 548.105L420.629 548.427C420.458 548.497 418.988 549.03 418.899 549.527C418.937 549.315 418.8 549.71 418.963 549.751C420.398 550.113 423.742 550.089 425.124 550.152ZM432.363 654.031C434.995 654.867 435.55 654.747 438.501 654.089C442.424 653.214 443.511 655.299 446.201 656.634C446.937 656.463 447.323 656.272 448.026 655.994C449.006 653.065 448.514 594.639 448.541 587.83C443.243 587.479 437.859 587.62 432.543 587.67C431.843 608.715 432.345 632.793 432.363 654.031ZM448.591 551.997C448.215 546.529 449.363 537.69 447.313 532.651C446.763 531.299 444.249 530.176 442.763 529.998C434.263 528.979 433.455 533.067 432.666 540.082C434.466 543.055 434.501 544.504 434.091 548.254C433.742 551.441 434.716 550.655 436.788 552.781C440.633 552.296 444.704 552.078 448.591 551.997ZM459.15 570.546C452.549 570.369 443.113 570.186 436.59 570.543L436.23 570.878C429.378 577.164 441.889 579.559 432.565 580.154C429.644 580.141 426.724 580.101 423.803 580.031C424.158 578.674 424.007 576.035 424.262 575.765C426.556 573.403 422.55 572.941 421.328 573.717C421.096 573.865 421.293 578.649 421.082 579.953C419.239 581.321 420.816 583.041 422.233 584.058C434.123 583.014 446.879 584.834 459.031 583.451C459.156 579.241 459.079 574.82 459.15 570.546ZM425.051 558.966C422.509 559.71 421.635 559.737 419.62 561.28C421.157 565.29 424.44 564.715 428.555 563.575C428.928 563.472 429.45 562.223 429.46 561.795C429.508 559.735 426.66 559.097 425.051 558.966ZM446.57 691.826C446.418 686.786 446.532 681.667 446.454 676.592C446.442 673.291 446.551 664.461 446.282 660.732C446.265 660.5 444.731 660.391 444.667 660.384C443.174 660.418 441.837 660.438 440.347 660.414C438.012 660.77 437.717 661.255 435.353 660.743C433.17 660.271 431.221 661.454 428.651 661.428C424.858 661.406 418.121 662.591 420.892 668.005C421.278 671.327 420.92 674.24 420.951 677.703C421.106 680.446 421.511 680.78 420.917 683.58C419.751 693.406 421.844 690.46 428.631 691.937C432.714 692.15 434.45 691.414 437.75 691.459C441.533 691.511 442.021 692.147 446.57 691.826ZM459.444 557.953C455.893 557.824 453.522 557.656 449.89 557.664C445.539 558.645 437.015 557.123 432.65 558.155C432.037 558.301 430.71 564.805 433.95 564.635C434.224 564.621 436.222 565.863 436.455 566.056C442.013 567.115 453.795 566.139 459.095 566.742C459.616 563.403 459.433 561.273 459.444 557.953ZM432.683 698.053C433.071 705.995 429.866 718.641 442.502 716.923C443.817 716.744 444.771 716.287 445.921 715.684L446.272 715.503C449.782 711.095 448.491 704.577 448.409 698.162C443.035 697.993 438.043 698.044 432.683 698.053Z"/>
  <path fill="#A97E66" d="M419.837 557.762C425.327 557.387 431.612 557.793 437.25 557.531C439.364 557.433 447.935 557.425 449.89 557.664C445.539 558.645 437.015 557.123 432.65 558.155C432.037 558.301 430.71 564.805 433.95 564.635C434.224 564.621 436.222 565.863 436.455 566.056C442.013 567.115 453.795 566.139 459.095 566.742C456.675 567.193 448.711 567.016 445.923 567.019L419.057 567.055C419.003 564.277 418.962 562.476 419.156 559.69C418.979 558.72 418.651 557.901 419.837 557.762ZM419.62 561.28C421.157 565.29 424.44 564.715 428.555 563.575C428.928 563.472 429.45 562.223 429.46 561.795C429.508 559.735 426.66 559.097 425.051 558.966C422.509 559.71 421.635 559.737 419.62 561.28Z"/>
  <path fill="#DAB6A7" d="M432.518 570.339C433.939 570.389 435.167 570.411 436.59 570.543L436.23 570.878C429.378 577.164 441.889 579.559 432.565 580.154C432.518 576.882 432.503 573.61 432.518 570.339Z"/>
  <path fill="#D8BAAE" fill-opacity="0.062745102" d="M444.667 660.384C444.731 660.391 446.265 660.5 446.282 660.732C446.551 664.461 446.442 673.291 446.454 676.592C446.232 676.296 446.029 675.981 445.741 675.765L445.742 675.828L445.535 676.068C445.391 677.552 445.132 678.827 444.934 680.224C444.189 685.47 446.1 686.809 439.625 687.475L441.033 685.54C443.286 681.56 441.578 680.871 442.354 676.498C443.192 671.779 441.642 668.363 440.285 663.991C439.986 663.03 439.802 661.388 440.347 660.414C441.837 660.438 443.174 660.418 444.667 660.384Z"/>
  <path fill="#D6B8AB" fill-opacity="0.67843139" d="M428.651 661.428C431.221 661.454 433.17 660.271 435.353 660.743C437.717 661.255 438.012 660.77 440.347 660.414C439.802 661.388 439.986 663.03 440.285 663.991C441.642 668.363 443.192 671.779 442.354 676.498C441.578 680.871 443.286 681.56 441.033 685.54C440.924 682.375 440.192 679.412 440.278 676.5C440.381 673.002 440.592 671.261 439.28 667.88C437.075 666.532 434.907 667.091 432.974 665.573C431.455 664.38 429.958 664.309 428.256 665.177C428.248 663.858 428.544 662.801 428.651 661.428Z"/>
  <path fill="#D6B8AB" d="M432.33 553.603C432.311 550.195 432.119 543.204 432.666 540.082C434.466 543.055 434.501 544.504 434.091 548.254C433.742 551.441 434.716 550.655 436.788 552.781C440.633 552.296 444.704 552.078 448.591 551.997C448.589 552.047 448.614 553.546 448.228 553.615C443.391 554.486 437.218 553.74 432.33 553.603Z"/>
  <path fill="#C39C8A" d="M432.363 654.031C434.995 654.867 435.55 654.747 438.501 654.089C442.424 653.214 443.511 655.299 446.201 656.634C442.371 656.089 438.359 656.42 434.489 656.364C432.34 656.333 431.773 656.471 432.363 654.031Z"/>
  <path fill="#F74C1B" d="M621.397 695.866C622.131 691.579 623.869 686.272 629.25 686.056C636.631 685.984 644.171 685.914 651.544 685.987C654.316 686.015 660.014 685.545 662.461 686.206C669.34 688.064 669.034 694.276 667.428 699.333C671.81 700.944 675.568 699.901 680.749 701.832C683.624 702.413 686.23 703.438 687.89 706.007C689.267 708.138 689.803 711.278 689.141 713.735C688.528 716.008 686.93 717.73 684.895 718.849C679.389 721.877 650.457 720.752 643.106 720.428C637.305 717.108 636.036 714.15 636.647 707.519C635.609 707.154 629.889 706.994 628.433 706.896C624.843 704.12 624.104 703.553 622.033 699.581C626.241 700.934 632.017 704.718 635.057 699.498C636.811 696.485 636.269 692.258 633.004 690.508C628.095 687.875 625.1 694.819 622.371 695.593L621.397 695.866ZM628.433 706.896C629.889 706.994 635.609 707.154 636.647 707.519C641.52 701.669 642.264 702.122 650.334 702.016C655.051 701.954 660.019 702.076 664.737 702.011C665.579 701.144 666.505 699.957 667.428 699.333C669.034 694.276 669.34 688.064 662.461 686.206C660.014 685.545 654.316 686.015 651.544 685.987C644.171 685.914 636.631 685.984 629.25 686.056C623.869 686.272 622.131 691.579 621.397 695.866L622.371 695.593C625.1 694.819 628.095 687.875 633.004 690.508C636.269 692.258 636.811 696.485 635.057 699.498C632.017 704.718 626.241 700.934 622.033 699.581C624.104 703.553 624.843 704.12 628.433 706.896ZM677.065 716.474C679.73 716.466 682.183 716.977 684.207 714.929C685.33 713.793 685.652 712.295 685.577 710.752C685.504 709.232 684.888 707.952 683.768 706.909C681.435 704.734 651.112 705.66 646.014 705.746L644.234 705.99C638.331 706.791 639.306 717.549 646.743 716.195C648.963 715.791 656.815 716.952 659.749 716.316C664.488 716.015 669.19 714.757 674.006 715.083C675.743 715.201 675.612 715.782 677.065 716.474Z"/>
  <path fill="#A97E66" d="M621.397 695.866C622.131 691.579 623.869 686.272 629.25 686.056C636.631 685.984 644.171 685.914 651.544 685.987C654.316 686.015 660.014 685.545 662.461 686.206C669.34 688.064 669.034 694.276 667.428 699.333C666.505 699.957 665.579 701.144 664.737 702.011C660.019 702.076 655.051 701.954 650.334 702.016C642.264 702.122 641.52 701.669 636.647 707.519C635.609 707.154 629.889 706.994 628.433 706.896C624.843 704.12 624.104 703.553 622.033 699.581C626.241 700.934 632.017 704.718 635.057 699.498C636.811 696.485 636.269 692.258 633.004 690.508C628.095 687.875 625.1 694.819 622.371 695.593L621.397 695.866ZM643.394 697.11C645.8 697.095 646.864 697.315 649.046 697.378C650.726 697.503 652.302 697.571 653.981 697.656C655.654 697.665 657.332 697.682 659.001 697.529C659.165 697.514 661.937 697.454 661.656 696.701C661.031 696.428 655.793 696.438 654.768 696.452L653.541 696.458C650.156 695.71 648.023 696.104 644.604 695.775C642.219 694.961 639.793 694.441 639.204 697.301C639.111 697.751 638.953 698.416 639.139 698.852C640.206 698.899 639.559 698.357 640.25 697.759C641.333 697.667 642.422 697.64 643.394 697.11Z"/>
  <path fill="#A57B61" fill-opacity="0.61176473" d="M643.394 697.11C642.422 697.64 641.333 697.667 640.25 697.759C639.559 698.357 640.206 698.899 639.139 698.852C638.953 698.416 639.111 697.751 639.204 697.301C639.793 694.441 642.219 694.961 644.604 695.775C643.75 695.995 641.746 696.22 643.394 697.11Z"/>
  <path fill="#A57B61" fill-opacity="0.36470589" d="M644.604 695.775C648.023 696.104 650.156 695.71 653.541 696.458C651.684 696.485 649.386 695.641 649.046 697.378C646.864 697.315 645.8 697.095 643.394 697.11C641.746 696.22 643.75 695.995 644.604 695.775Z"/>
  <path fill="#A57B61" fill-opacity="0.39215687" d="M654.768 696.452C655.793 696.438 661.031 696.428 661.656 696.701C661.937 697.454 659.165 697.514 659.001 697.529C657.332 697.682 655.654 697.665 653.981 697.656L654.768 696.452Z"/>
  <path fill="#A57B61" fill-opacity="0.13725491" d="M649.046 697.378C649.386 695.641 651.684 696.485 653.541 696.458L654.768 696.452L653.981 697.656C652.302 697.571 650.726 697.503 649.046 697.378Z"/>
  <path fill="#FEFEFE" d="M667.428 699.333C671.81 700.944 675.568 699.901 680.749 701.832C676.007 702.23 669.637 701.999 664.737 702.011C665.579 701.144 666.505 699.957 667.428 699.333Z"/>
  <path fill="#D6B8AB" d="M555.942 604.151C557.024 591.152 556.017 584.231 561.576 570.988C568.555 554.513 581.842 541.519 598.469 534.91C613.729 528.821 631.681 528.413 646.827 535.004L646.92 535.455C645.746 536.015 645.797 535.967 644.918 536.942C619.859 536.557 602.839 535.467 583.169 554.735C571.554 566.253 564.982 581.908 564.898 598.266C564.899 599.077 564.937 599.852 565.05 600.654C561.862 602.119 559.264 602.456 555.942 604.151Z"/>
  <path fill="#DAB6A7" fill-opacity="0.93725491" d="M646.92 535.455C648.244 536.763 648.62 537.311 646.581 537.651L644.918 536.942C645.797 535.967 645.746 536.015 646.92 535.455Z"/>
</svg>