<?xml version="1.0" encoding="utf-8"?>
<svg xmlns="http://www.w3.org/2000/svg" width="258" height="168" viewBox="18.36 446.06 257.68 167.73">
  <path fill="#CEA083" d="M241.146 589.416C241.739 583.996 242.287 558.586 256.97 565.558C261.032 567.487 254.973 574.027 253.587 576.995C249.951 584.781 256.031 598.418 242.607 597.889C234.774 598.003 227.297 598.069 219.709 598.083L177.627 598.129C144.214 598.152 108.706 598.794 75.5266 597.966C65.4833 591.655 73.8108 582.528 68.6801 570.418C71.4202 570.08 74.9845 570.168 77.7513 570.416C79.4925 577.415 79.0728 582.321 79.0706 589.511C86.4417 590.095 97.1291 589.79 104.715 589.775L148.19 589.778L207.661 589.735C217.85 589.712 231.221 590.125 241.146 589.416Z"/>
  <path fill="#F54915" d="M166.705 503.6C169.678 492.385 173.942 485.208 187.069 488.196C190.766 489.037 194.846 493.133 196.21 496.545C200.777 507.967 202.454 529.708 192.533 538.604C188.715 540.483 187.483 540.319 183.932 541.536C180.071 541.606 177.645 540.902 174.178 539.421C173.475 538.764 172.685 538.021 171.927 537.435C170.248 535.482 169.66 534.607 168.201 532.493C167.76 530.842 167.041 529.309 166.424 527.721C164.668 523.346 164.875 515.648 165.712 511.022C166.162 509.726 166.521 505.186 166.705 503.6ZM187.927 504.595C184.961 492.544 177.887 494.037 177.297 505.255C177.128 508.466 176.458 511.992 176.559 515.276C177.006 522.285 175.007 532.779 184.916 530.864C185.308 527.132 186.001 525.262 183.785 521.551C181.113 517.076 185.117 513.441 185.451 508.989C185.682 505.904 186.053 506.402 187.927 504.595Z"/>
  <path fill="#D09F81" d="M187.927 504.595C187.346 512.227 190.317 525.377 184.916 530.864C185.308 527.132 186.001 525.262 183.785 521.551C181.113 517.076 185.117 513.441 185.451 508.989C185.682 505.904 186.053 506.402 187.927 504.595Z"/>
  <path fill="#F54915" d="M221.121 542.027C225.939 538.134 227.595 536.464 233.215 539.352L233.256 541.485C233.582 543.81 233.599 548.629 231.896 550.476C228.913 553.711 226.898 549.23 226.75 549.16C226.11 549.256 224.25 550.954 223.274 551.586C221.479 557.046 223.898 567.115 219.937 569.933C215.288 570.797 206.855 570.509 201.872 570.491L174.611 570.397L77.7513 570.416C74.9845 570.168 71.4202 570.08 68.6801 570.418C62.2371 570.12 51.676 570.721 45.5186 569.963C41.6824 568.026 43.3683 556.153 42.8563 552.731C42.0217 547.154 33.7794 543.064 35.2381 538.896L36.6273 538.256C49.1044 539.16 48.4943 555.477 48.5683 564.322C58.1922 563.919 69.6596 564.142 79.4158 564.115L139.502 564.086L188.953 564.113C197.302 564.129 208.177 563.87 216.309 564.347C216.253 555.519 215.742 549.662 221.121 542.027Z"/>
  <path fill="#D19E7F" d="M233.256 541.485C233.582 543.81 233.599 548.629 231.896 550.476C228.913 553.711 226.898 549.23 226.75 549.16C226.11 549.256 224.25 550.954 223.274 551.586C225.215 542.85 227.007 544.66 233.256 541.485Z"/>
  <path fill="#F54915" d="M129.286 498.627C135.992 480.915 156.583 484.75 160.307 503.13C160.465 505.149 160.472 507.99 160.801 509.833C161.147 520.824 162.695 532.552 152.302 538.959L151.702 539.338L150.987 539.577C146.865 541.017 145.082 540.511 140.981 540.653C137.294 539.872 135.68 538.623 132.724 536.484C132.23 535.213 130.821 533.025 129.912 531.944C128.924 529.082 128.087 526.145 127.95 523.107C127.967 518.702 128.011 511.331 127.898 507.054C127.992 506.066 128.075 505.139 128.205 504.155C128.654 502.209 129.036 500.604 129.286 498.627ZM147.62 502.448L148.501 500.63L148.125 499.866L147.834 499.068C146.979 496.68 145.494 495.726 142.44 496.367C141.488 496.567 140.573 499.356 140.203 500.306C138.041 505.359 138.261 507.816 138.42 513.184C138.596 516.772 139.023 521.764 139.653 525.311C140.179 527.787 140.982 532.186 145.223 531.872C147.359 531.714 148.099 528.336 148.942 526.735C148.536 525.739 148.304 525.207 148.03 524.157C147.933 519.106 147.822 514.546 147.499 509.5C147.348 507.146 148.063 505.317 147.62 502.448Z"/>
  <path fill="#D19E7F" fill-opacity="0.43137255" d="M138.42 513.184C141.974 509.031 140.522 512.772 144.746 511.006C146.343 510.338 146.861 504.106 147.62 502.448C148.063 505.317 147.348 507.146 147.499 509.5C147.822 514.546 147.933 519.106 148.03 524.157C147.716 523.133 147.631 521.54 147.043 520.991C144.882 521.512 144.395 521.189 142.154 522.163C139.415 523.354 140.149 521.068 139.653 525.311C139.023 521.764 138.596 516.772 138.42 513.184Z"/>
  <path fill="#D19E7F" fill-opacity="0.29019609" d="M138.42 513.184C138.261 507.816 138.041 505.359 140.203 500.306C140.859 500.802 141.924 500.884 143.007 501.42C146.141 502.972 146.542 501.669 148.125 499.866L148.501 500.63L147.62 502.448C146.861 504.106 146.343 510.338 144.746 511.006C140.522 512.772 141.974 509.031 138.42 513.184Z"/>
  <path fill="#D19E7F" d="M148.501 500.63C150.556 506.236 150.674 521.025 148.942 526.735C148.536 525.739 148.304 525.207 148.03 524.157C147.933 519.106 147.822 514.546 147.499 509.5C147.348 507.146 148.063 505.317 147.62 502.448L148.501 500.63Z"/>
  <path fill="#D19E7F" fill-opacity="0.0078431377" d="M140.203 500.306C140.573 499.356 141.488 496.567 142.44 496.367C145.494 495.726 146.979 496.68 147.834 499.068L148.125 499.866C146.542 501.669 146.141 502.972 143.007 501.42C141.924 500.884 140.859 500.802 140.203 500.306Z"/>
  <path fill="#F54915" d="M101.44 540.295C97.0883 538.067 94.0783 535.237 92.3392 530.37C89.394 521.641 88.8861 504.52 93.018 496.173C99.713 482.65 116.734 485.345 121.868 499.373C122.069 501.79 122.732 504.453 122.569 506.688L122.873 507.701C122.975 511.642 122.765 518.265 123.04 521.828C122.963 523.898 122.602 525.892 122.006 527.879C120.256 533.744 117.895 536.869 112.667 540.056C107.43 540.859 106.77 540.946 101.44 540.295ZM100.913 508.554C101.012 510.09 100.955 511.48 101.038 513.005C101.067 518.384 100.762 523.948 102.956 528.999L103.169 529.498C104.564 531.293 105.942 533.128 108.118 531.399C112.488 527.346 112.088 521.915 112.023 516.175C111.884 513.142 112.478 499.732 109.718 497.578C101.669 491.295 101.036 506.538 100.913 508.554Z"/>
  <path fill="#D19E7F" fill-opacity="0.80000001" d="M100.913 508.554C110.136 508.841 107.225 512.632 108.328 520.752L108.696 523.543C107.457 523.631 107.434 523.697 106.19 524.162C106.364 522.102 106.479 512.935 105.566 511.906C105.321 511.906 105.465 511.88 105.167 512.094L105.566 512.451L105.016 512.301C104.523 513.427 104.549 515.293 104.422 516.625C104.347 516.205 103.869 509.471 101.4 512.566L101.038 513.005C100.955 511.48 101.012 510.09 100.913 508.554Z"/>
  <path fill="#D19E7F" fill-opacity="0.015686275" d="M101.038 513.005L101.4 512.566C103.869 509.471 104.347 516.205 104.422 516.625C104.348 519.443 104.473 522.29 104.462 525.124C103.445 526.01 103.528 527.666 103.169 529.498L102.956 528.999C100.762 523.948 101.067 518.384 101.038 513.005Z"/>
  <path fill="#D09F81" fill-opacity="0.043137256" d="M108.696 523.543C108.715 526.848 106.657 529.413 108.118 531.399C105.942 533.128 104.564 531.293 103.169 529.498C103.528 527.666 103.445 526.01 104.462 525.124C105.693 525.869 105.724 525.354 106.19 524.162C107.434 523.697 107.457 523.631 108.696 523.543Z"/>
  <path fill="#D09F81" fill-opacity="0.9254902" d="M104.422 516.625C104.549 515.293 104.523 513.427 105.016 512.301L105.566 512.451L105.167 512.094C105.465 511.88 105.321 511.906 105.566 511.906C106.479 512.935 106.364 522.102 106.19 524.162C105.724 525.354 105.693 525.869 104.462 525.124C104.473 522.29 104.348 519.443 104.422 516.625Z"/>
  <path fill="#F54915" d="M48.6625 467.893L48.7057 468.606C49.0912 475.758 48.394 484.41 43.4193 490.017C41.287 492.421 37.5446 493.69 34.4631 492.547C33.3569 490.996 33.5495 491.82 33.7431 490.024C34.6409 488.921 35.253 488.325 36.5102 487.605C42.0743 484.42 42.713 476.535 42.6119 470.72C42.444 461.064 44.631 461.768 53.1801 461.754C93.0232 461.687 132.87 461.712 172.715 461.729L203.494 461.709C208.563 461.694 214.258 461.549 219.322 462C220.269 462.084 220.649 462.402 221.018 463.09C221.856 464.653 221.887 466.417 221.961 468.129C222.408 478.529 220.537 482.589 230.7 488.785C231.283 489.14 231.154 489.054 231.651 489.537C228.03 496.507 227.039 492.316 221.884 490.015C216.192 482.715 215.94 476.58 215.91 467.776C168.667 466.663 120.909 468.509 73.6256 467.747C65.5352 467.617 56.7147 467.519 48.6625 467.893Z"/>
  <path fill="#D09F81" d="M203.242 518.654C211.134 517.523 232.331 514.758 233.423 527.505C233.688 530.592 233.318 536.019 233.215 539.352C227.595 536.464 225.939 538.134 221.121 542.027C218.331 541.945 216.789 541.774 214.05 541.453C212.972 545.595 212.193 548.43 209.63 552.113C205.21 558.466 193.895 557.908 188.444 553.27C184.528 549.938 184.118 546.569 183.932 541.536C187.483 540.319 188.715 540.483 192.533 538.604C193.683 542.898 198.053 551.065 201.841 542.973C204.291 537.74 203.63 524.738 203.242 518.654Z"/>
  <path fill="#F54915" d="M74.8214 488.062C77.4785 487.713 80.0829 487.756 81.911 489.923C83.1096 497.938 81.9487 508.24 82.3014 516.468C82.5037 521.187 84.3582 549.826 72.968 537.753C71.9366 533.626 72.3436 506.616 72.3348 499.881C65.6877 502.226 58.4876 500.05 65.2796 492.851C66.0318 492.054 73.2132 488.818 74.8214 488.062Z"/>
  <path fill="#CEA083" d="M231.651 489.537C236.111 491.333 246.865 488.311 251.345 491.162C256.999 494.584 252.402 507.088 254.44 511.254C256.974 516.438 259.675 520.702 249.629 518.324C243.774 516.939 244.85 503.809 244.761 498.148C235.429 497.927 226.072 497.982 216.744 497.849C213.772 497.807 211.333 496.534 211.856 493.252C212.618 488.465 218.519 489.705 221.884 490.015C227.039 492.316 228.03 496.507 231.651 489.537Z"/>
  <path fill="#D19E7F" d="M129.912 531.944C130.821 533.025 132.23 535.213 132.724 536.484C134.608 550.914 124.019 562.116 108.765 553.985C105.721 552.362 102.636 543.888 101.44 540.295C106.77 540.946 107.43 540.859 112.667 540.056C113.848 548.847 123.576 547.922 122.205 536.293C124.799 534.738 126.408 531.734 128.979 531.898L129.912 531.944Z"/>
  <path fill="#D09F81" d="M166.424 527.721C167.041 529.309 167.76 530.842 168.201 532.493C168.482 535.741 168.266 538.36 171.927 537.435C172.685 538.021 173.475 538.764 174.178 539.421C173.951 544.127 172.953 549.704 169.35 552.71C162.305 558.589 150.653 557.24 145.423 549.502C143.054 545.998 142.387 544.409 140.981 540.653C145.082 540.511 146.865 541.017 150.987 539.577L151.702 539.338C152.131 540.337 152.61 541.913 153.158 542.679C157.737 549.145 162.14 545.268 162.879 538.743C163.191 535.984 164.961 534.704 165.464 531.997C165.717 530.64 166.11 529.084 166.424 527.721Z"/>
  <path fill="#CEA083" fill-opacity="0.015686275" d="M123.04 521.828C123.792 520.54 125.452 519.625 127.096 519.352C127.488 519.287 127.79 522.378 127.95 523.107C128.087 526.145 128.924 529.082 129.912 531.944L128.979 531.898C126.408 531.734 124.799 534.738 122.205 536.293C122.741 532.277 124.043 532.413 122.006 527.879C122.602 525.892 122.963 523.898 123.04 521.828Z"/>
  <path fill="#CEA083" fill-opacity="0.8392157" d="M122.873 507.701C123.131 507.709 127.025 507.63 127.185 507.717C127.521 507.666 127.705 507.296 127.898 507.054C128.011 511.331 127.967 518.702 127.95 523.107C127.79 522.378 127.488 519.287 127.096 519.352C125.452 519.625 123.792 520.54 123.04 521.828C122.765 518.265 122.975 511.642 122.873 507.701Z"/>
  <path fill="#D19E7F" fill-opacity="0.94117647" d="M160.307 503.13C162.553 503.396 164.497 503.337 166.705 503.6C166.521 505.186 166.162 509.726 165.712 511.022C165.211 506.215 161.402 506.511 160.801 509.833C160.472 507.99 160.465 505.149 160.307 503.13Z"/>
  <path fill="#D09F81" fill-opacity="0.92941177" d="M121.868 499.373C125.88 500.925 125.258 500.347 129.286 498.627C129.036 500.604 128.654 502.209 128.205 504.155C123.905 503.965 123.087 502.68 122.569 506.688C122.732 504.453 122.069 501.79 121.868 499.373Z"/>
  <path fill="#CEA083" fill-opacity="0.69803923" d="M122.569 506.688C123.087 502.68 123.905 503.965 128.205 504.155C128.075 505.139 127.992 506.066 127.898 507.054C127.705 507.296 127.521 507.666 127.185 507.717C127.025 507.63 123.131 507.709 122.873 507.701L122.569 506.688Z"/>
  <path fill="#CEA083" fill-opacity="0.81568629" d="M168.201 532.493C169.66 534.607 170.248 535.482 171.927 537.435C168.266 538.36 168.482 535.741 168.201 532.493Z"/>
</svg>